<svg width="172" height="110" viewBox="0 0 172 110" fill="none" xmlns="http://www.w3.org/2000/svg">
<path d="M94.9024 39.9268H104.659V41.878H106.61V39.9268H118.317V41.878H122.22V43.8293H124.171V47.7317H126.122V69.1951H124.171V73.0976H122.22V75.0488H118.317V77H104.659V88.7073H94.9024V39.9268ZM114.415 67.2439H116.366V49.6829H114.415V47.7317H106.61V49.6829H104.659V69.1951H114.415V67.2439Z" fill="#A78BFA"/>
<path d="M9.36585 60.5854H4.68293V51.2195H9.36585V48.8781H14.0488V46.5366H18.7317V44.1951H23.4146V41.8537H28.0976V39.5122H32.7805V37.1707H37.4634V34.8293H42.1463V46.5366H37.4634V48.8781H32.7805V51.2195H28.0976V53.561H23.4146V58.2439H28.0976V60.5854H32.7805V62.9268H37.4634V65.2683H42.1463V76.9756H37.4634V74.6341H32.7805V72.2927H28.0976V69.9512H23.4146V67.6098H18.7317V65.2683H14.0488V62.9268H9.36585V60.5854Z" fill="#A78BFA"/>
<path d="M134.366 65.2683V62.9268H139.049V60.5854H143.732V58.2439H148.415V53.561H143.732V51.2195H139.049V48.8781H134.366V46.5366H129.683V34.8293H134.366V37.1707H139.049V39.5122H143.732V41.8537H148.415V44.1951H153.098V46.5366H157.78V48.8781H162.463V51.2195H167.146V60.5854H162.463V62.9268H157.78V65.2683H153.098V67.6098H148.415V69.9512H143.732V72.2927H139.049V74.6341H134.366V76.9756H129.683V65.2683H134.366Z" fill="#A78BFA"/>
<path d="M74.1951 37.0244V34.3415H60.7805V47.7561H74.1951V45.0732H76.878V37.0244H74.1951ZM74.1951 63.8537V61.1707H60.7805V74.5854H74.1951V71.9024H76.878V63.8537H74.1951ZM84.9268 55.8049H87.6098V58.4878H90.2927V77.2683H87.6098V82.6341H84.9268V85.3171H79.561V88H47.3659V20.9268H79.561V23.6098H84.9268V26.2927H87.6098V31.6585H90.2927V50.439H87.6098V53.122H84.9268V55.8049Z" fill="#A78BFA"/>
</svg>
