<svg width="87" height="110" viewBox="0 0 87 110" fill="none" xmlns="http://www.w3.org/2000/svg">
<path d="M52.9024 39.9268H62.6585V41.878H64.6098V39.9268H76.3171V41.878H80.2195V43.8293H82.1707V47.7317H84.122V69.1951H82.1707V73.0976H80.2195V75.0488H76.3171V77H62.6585V88.7073H52.9024V39.9268ZM72.4146 67.2439H74.3659V49.6829H72.4146V47.7317H64.6098V49.6829H62.6585V69.1951H72.4146V67.2439Z" fill="#A78BFA"/>
<path d="M32.1951 37.0244V34.3415H18.7805V47.7561H32.1951V45.0732H34.878V37.0244H32.1951ZM32.1951 63.8537V61.1707H18.7805V74.5854H32.1951V71.9024H34.878V63.8537H32.1951ZM42.9268 55.8049H45.6098V58.4878H48.2927V77.2683H45.6098V82.6341H42.9268V85.3171H37.561V88H5.36585V20.9268H37.561V23.6098H42.9268V26.2927H45.6098V31.6585H48.2927V50.439H45.6098V53.122H42.9268V55.8049Z" fill="#A78BFA"/>
</svg>
